<?xml version="1.0" encoding="UTF-8" standalone="no"?><svg xmlns="http://www.w3.org/2000/svg" xmlns:xlink="http://www.w3.org/1999/xlink" fill="#ffffff" height="41.7" preserveAspectRatio="xMidYMid meet" version="1" viewBox="3.1 3.1 41.7 41.7" width="41.7" zoomAndPan="magnify"><g id="change1_1"><path d="M24.001,3.146c-11.498,0-20.854,9.354-20.854,20.854c0,11.498,9.354,20.853,20.854,20.853 c11.498,0,20.852-9.354,20.852-20.853C44.853,12.501,35.499,3.146,24.001,3.146z M23.999,40.956 c-9.349,0-16.957-7.606-16.957-16.955c0-9.352,7.607-16.957,16.958-16.957c9.35,0,16.957,7.605,16.957,16.957 C40.958,33.35,33.35,40.956,23.999,40.956z" fill="inherit"/></g><g id="change1_2"><path d="M32.78,31.829l-1.898-2.188c-0.127-0.146-0.262-0.229-0.342-0.279c-0.217-0.137-0.447-0.213-0.678-0.23l-0.115-0.005 c-0.361,0-0.709,0.132-0.98,0.367c-1.313,1.14-3.006,1.767-4.766,1.767c-1.76,0-3.453-0.627-4.765-1.769 c-1.467-1.271-2.351-3.039-2.488-4.978c-0.138-1.938,0.488-3.813,1.761-5.278c1.38-1.593,3.385-2.505,5.499-2.505 c1.75,0,3.44,0.632,4.762,1.777c0.142,0.123,0.306,0.217,0.509,0.287l0.354,0.078l0.328-0.021c0.078-0.012,0.146-0.028,0.207-0.049 l0.217-0.074c0.117-0.055,0.227-0.125,0.335-0.219l2.063-2.342c0.541-0.623,0.474-1.572-0.15-2.115 c-2.643-2.293-6.098-3.447-9.56-3.188c-3.508,0.248-6.709,1.848-9.014,4.504c-2.305,2.656-3.438,6.053-3.189,9.561 s1.849,6.711,4.505,9.017c2.381,2.063,5.445,3.2,8.627,3.2c3.185,0,6.248-1.137,8.631-3.202 C33.254,33.401,33.321,32.452,32.78,31.829z" fill="inherit"/></g></svg>