<?xml version="1.0" encoding="UTF-8" standalone="no"?><svg xmlns="http://www.w3.org/2000/svg" xmlns:xlink="http://www.w3.org/1999/xlink" fill="#000000" height="22.5" preserveAspectRatio="xMidYMid meet" version="1" viewBox="1.6 2.6 231.4 22.5" width="231.4" zoomAndPan="magnify"><g><g id="change1_1"><circle cx="41.41" cy="17.98" fill="#ffffff" r="7.12"/></g><g id="change2_1"><circle cx="117.36" cy="17.98" fill="#ffffff" r="7.12"/></g><g id="change3_1"><circle cx="193.32" cy="17.98" fill="#ffffff" r="7.12"/></g><g id="change4_1"><path d="M232,19H206.6V18a13.44,13.44,0,0,0-26.88,0v1H130.8V18a13.44,13.44,0,0,0-26.88,0v1H54.84V18A13.44,13.44,0,0,0,28,18v1H2.55a1,1,0,0,1,0-2H26a15.44,15.44,0,0,1,30.81,0H102a15.44,15.44,0,0,1,30.81,0h45a15.44,15.44,0,0,1,30.81,0H232a1,1,0,0,1,0,2Z" fill="#ffffff"/></g></g></svg>